<?xml version="1.0" encoding="UTF-8"?>
<svg width="699.101" height="285.445" version="1.1" viewBox="0 0 699.101 285.445" xmlns="http://www.w3.org/2000/svg" xmlns:cc="http://creativecommons.org/ns#" xmlns:dc="http://purl.org/dc/elements/1.1/" xmlns:rdf="http://www.w3.org/1999/02/22-rdf-syntax-ns#">
 <metadata>
  <rdf:RDF>
   <cc:Work rdf:about="">
    <dc:format>image/svg+xml</dc:format>
    <dc:type rdf:resource="http://purl.org/dc/dcmitype/StillImage"/>
    <dc:title/>
   </cc:Work>
  </rdf:RDF>
 </metadata>
 <g transform="translate(45.3626 46.1035)" stroke-width=".08">
  <g>
   <path d="m586.6-46.1035c-8.54781 0.14543-17.0685 1.4265-25.3128 3.67588-5.05146 1.28025-10.0723 2.91222-14.6238 5.45899-5.05823 1.8965-9.72671 4.6931-14.4355 7.30928-2.69663 1.60397-5.30597 3.34914-7.85255 5.18093-2.83033 0.40501-5.54297 0.594819-8.13862-0.781935-14.9593-5.18678-31.6086-4.79529-46.5098 0.385404-4.37121-1.50138-8.89449-2.58722-13.4922-3.0918-11.9254-9.59998-27.5987-14.2055-42.8226-12.8559-14.7351 1.1608-29.3048 6.99052-39.9173 17.4382-2.18906 2.11628-4.22137 4.39484-6.07257 6.81226-13.1655 0.968121-25.9683 5.421-37.1406 12.4004-7.4011-3.11897-15.6775-3.49051-23.5919-2.84186-2.55525 0.197922-6.71008 0.910806-10.3075 1.42446s-6.56196 1.19052-11.9385 3.20451c-2.79433 0.602885-5.48921 1.60884-8.03125 2.91016-8.13733-2.92316-16.8879-4.37826-25.5235-3.43945-11.5722-8.82621-26.1906-13.6434-40.7628-12.9815-13.2552 0.304446-26.2748 5.25054-36.4855 13.6883-5.17937 4.1188-9.64414 9.09981-13.2361 14.6545-6.67767 0.476843-13.3243 1.58571-19.7993 3.28522-3.80625 1.07949-7.5618 2.44127-11.0035 4.414-4.52477-5.57002-9.63479-10.7249-15.42-14.9907-6.78141-4.93632-11.7657-7.7928-18.8219-10.0042-7.0562-2.21145-13.3299-3.82194-19.766-4.20692-4.30244-0.257356-8.64108-0.566812-12.2721-0.510971-3.63104 0.055841-8.90513 0.492125-13.0513 0.980425-4.14621 0.4883-9.45152 1.52037-14.5575 2.82852-8.63215 2.36115-17.251 4.8928-25.5251 8.32658-3.19252 1.48327-6.22946 3.24424-9.32616 4.90317-5.68391 3.38776-11.041 7.30161-16.2439 11.3749-9.32984 7.73712-16.5562 18.0584-20.4435 29.5469-1.08198 4.9449-2.44744 9.85483-2.90528 14.9191-1.60432 15.162 2.48397 30.831 11.3076 43.2669 0.01027 4.61656 0.0199 9.22603 0.03715 13.8418 0.666593 3.62655-3.13753 5.16337-4.87643 7.86538-11.1983 13.7877-15.1866 32.5855-12.0811 49.9222 2.223 13.4589 9.92991 25.4278 19.4502 34.9356 8.13516 8.03044 18.3222 13.692 28.9481 17.7222 1.40514 0.53348 4.23888 1.6553 6.41555 2.30957 4.58085 1.37693 9.24847 2.47689 13.944 3.38919 3.17165 0.61623 6.48681 0.96468 9.59065 1.40407 1.73715 0.22913 5.52637 0.91237 8.02123 1.01999 8.49128 0.61831 17.0382 0.35869 25.5205-0.30665 3.23303-0.32926 6.48597-0.61201 9.67139-1.26954-1.29537 0.0787 2.50663-0.30851 3.32184-0.52542 7.83685-1.2819 15.3806-3.84964 22.8203-6.53099 3.06462-0.90893 5.94997-2.30366 9.54338-4.05308 3.59342-1.74942 8.20287-3.83882 12.1483-6.61926-0.94401 0.56706-1.88802 1.13411-2.83203 1.70117 1.96338-0.59858 3.55474-2.85836 5.60374-2.57591 3.64997 0.75757 7.35437 1.29223 11.0748 1.41818 7.61287 0.58401 15.2335-0.76231 22.6582-2.32536 5.73385-1.27163 9.91262-3.00838 14.932-5.40414 5.01934-2.39576 9.5108-5.23866 13.4971-8.69268 4.44015-0.1299 8.87663-0.68791 13.1797-1.80469 8.01128 0.84693 16.2832-0.0364 24.0958-2.20031 5.74491-1.6857 11.3716-4.01117 16.3339-7.39345 8.15917 2.64409 16.9108 3.81262 25.4479 2.73423 3.43563-0.88098 6.70792 1.36149 10.1708 1.52009 3.37198 0.62523 6.80786 0.33371 10.1925 0.81811 9.16431 0.11852 18.3845-0.78444 27.2178-3.32578 5.47195-1.35215 10.6742-3.55873 15.8704-5.67966 2.44496-0.89568 4.63024-2.39125 7.28826-1.28456 7.61076 1.25309 15.3764 1.30088 23.0351 0.47542 0.70954-7e-3 4.32366-0.29807 6.05975-0.54123 7.66313-0.91147 15.1383-2.92796 22.4312-5.39897 2.62061-0.80185 5.20342-1.7255 7.74535-2.7493 3.50057 1.07528 6.96531 1.86079 10.6001 2.18562 1.56744 0.23403 5.4474 0.35746 4.95368 0.31731 10.2331 0.28811 20.6412-1.74111 29.7685-6.4443 7.15363 2.93299 14.789 5.09772 22.5669 5.17833 4.2844 0.8042 8.61801 0.2626 12.8998 0.19578 7.85563 0.75036 15.5894-1.52413 22.8772-4.22363 4.37804-1.31617 8.48691-3.35184 12.8736-4.63922 3.12853-1.14767 6.07119-2.78759 8.78427-4.71242 12.7422 2.065 25.9071-0.82224 37.2015-6.87268 15.5652-8.22742 27.423-23.1923 31.719-40.2861 1.69229-6.0571 2.16929-12.3528 2.57633-18.5933 0.73286-4.37872 1.85525-8.67204 2.49744-13.0682-0.1753 1.19153-0.34866 2.20904-0.0469 0.349609 0.80844-2.49411-0.0377-6.66426 3.72729-6.0409 13.2765-2.0239 25.804-8.69863 35.0026-18.4669 12.2066-13.173 18.0452-31.722 16.4153-49.5316-1.18238-15.3895-8.05147-30.2571-19.1398-41.0146-12.5573-12.3418-30.1668-19.3153-47.7305-19.4127z" fill="#4c260b"/>
   <path d="m273.121 167.424c3.99817 1.74957 11.1846 3.0822 15.3518 3.43584 8.44123 0.71632 19.3717-1.23879 27.3202-3.92082 2.69496-0.97481 8.6247-3.4733 10.9507-4.65481s4.30191-2.98619 6.46707-3.25985c8.73228 2.64924 18.297 3.4707 27.3608 2.44417 7.48217-0.34058 14.9109-1.84392 21.9367-4.38148 6.21553-2.24491 9.83483-3.2245 15.0728-6.23837 0 0 2.65894 1.14987 5.03878 1.98923 8.19847 2.89153 17.5377 3.249 25.8332 0.46597 5.29531-1.73601 9.98268-4.99575 13.8163-9.00284 6.26279 4.60844 13.6311 7.58696 21.2044 9.21601 4.46139 0.57816 8.22488 0.88126 12.3396 0.71397 7.27626-0.53784 14.6159-1.48263 21.5237-3.92447 4.97691-2.0127 9.95262-4.12039 14.4713-7.05727 2.54988-1.39419 4.98591-2.98366 7.39653-4.60062 8.24527 2.86544 18.2258 2.46685 26.3122-0.29036 8.74989-3.19206 15.9137-10.0786 19.8861-18.4568 2.67483-5.02378 4.31237-10.6873 3.91108-16.4189 0.12563-3.84478 0.65435-7.65344 1.47461-11.4121 0.27286-1.08153 0.68552-3.33772 0.69322-3.37476 1.13731-5.46883 1.50049-10.0575 3.16991-15.4001 1.01606-3.25167 1.62435-6.61935 3.06266-9.72959 0.77601-2.28987 2.23998-3.78653 3.9319-5.48357 2.01303-2.01912 4.28491-1.49949 6.71594-1.12338 10.689 1.13673 21.7173-3.19137 28.8817-11.1855 5.97005-6.44983 10.0378-14.9219 10.1096-23.8135 0.39783-11.8284-4.29743-23.9713-13.4211-31.6962-7.57376-6.40028-17.3564-10.1795-27.3099-10.0586v-5e-5c-6.65937 0.130628-13.2661 1.27203-19.6656 3.08902-2.19946 0.666667-6.96904 2.2998-9.04849 3.2963-7.80316 3.73937-15.6023 7.74389-22.2287 13.3693-1.03229 0.876351-2.56706 2.31162-2.56706 2.31162-5.19387-1.14667-11.1879-0.182043-16.1503 1.4611-13.1316-7.87763-30.5569-8.87599-44.1811-1.71716-0.93013 0.488734-3.29572 1.73474-3.29572 1.73474-6.65295-3.87296-16.0694-6.56086-23.736-5.72266-5.91181-6.15935-13.6156-10.9216-22.0996-12.4043-7.41362-1.24846-15.2412-0.374663-21.9616 3.10106-8.38798 3.91261-15.7327 12.6189-18.721 21.4487-2.78313-0.310409-3.02983-0.295503-5.17916-0.497623-12.3776-1.16397-24.7636 2.78591-35.1343 9.4537-2.80975 1.80651-7.07184 4.69532-9.7168 6.71484-3.49862-1.80189-12.4977-6.25421-16.4945-6.66448-10.0412-0.644965-20.7735 2.00061-28.936 5.09611-3.65382 1.56328-6.78912 4.04793-10.3019 5.8672-9.95399-7.35018-23.4643-8.79864-35.1445-5.26562-5.50145-7.50078-13.9775-12.7797-23.2288-14.0325-10.7788-1.74065-22.0609 1.96604-30.3679 8.88661-6.06697 5.30885-10.0146 12.7269-11.9386 20.4916-7.33728-2.06285-15.1147-1.98067-22.5519-0.51197-4.20085 0.736982-8.80593 2.08595-13.6837 4.52625s-11.0174 7.57741-14.5917 10.7578c-3.5743 3.1804-5.4511 5.576-7.37978 7.87048-0.29058-11.791-5.30846-23.4275-13.9473-31.502-5.26107-5.75697-12.2714-9.75888-19.7982-11.7009-3.34149-1.16917-9.55682-2.37371-12.8116-2.53204-3.25482-0.158336-5.41359-0.363397-9.05711-0.329502-3.64352 0.0339-7.97382 0.582223-12.2707 1.15204-2.0787 0.331115-6.68644 1.36886-10.1209 2.31068-3.43447 0.94183-8.29198 2.23636-12.4373 3.64307-4.14527 1.40671-5.84248 2.06375-9.13708 3.86879-2.04034 1.11786-4.81562 2.47121-7.04709 3.8576-3.21752 1.9714-8.45415 5.93498-12.3202 9.28817-3.86604 3.35319-7.59465 8.84207-10.7827 18.5901-3.18809 9.748 0.06886 27.7792 10.2145 37.645-0.033569 1.79892 0.099804 3.61279 0.090566 3.27084-0.180432 2.0309 0.103626 4.05156-0.019721 5.62004-0.010939 1.36777 0.038172 4.27868 0.072535 4.73848-1.424e-4 -0.6548 0.0545076-3.37744-0.018181-1.32994-0.020739 1.55935 0.020876 3.37089 0.013696 5.05632-0.00464 1.08987-0.037832 2.17955-0.036723 3.26943 0.00209 2.05368-0.00278 4.08652 0.081733 6.16051 0.0847871 2.08066 0.0557444 4.1815 0.0524284 6.07369-0.00423 2.41356 0.0239872 4.37855-0.0229816 6.19955-6.30553 3.30315-12.4694 9.57552-15.3699 16.038-5.50418 11.6888-3.25834 26.2946 4.78421 36.266 4.38592 6.24816 10.5243 11.1074 17.3704 14.415 3.31921 1.73333 6.78781 3.19625 10.2228 4.40488 3.43496 1.20863 6.80434 2.44702 10.3275 3.21139 5.58204 1.21108 11.3006 1.77622 17.0003 2.15031 5.90388 0.3875 12.0372 0.2229 17.7495 0.0934 5.63599-0.29845 11.2152-1.2322 16.7711-2.17186 5.99156-1.20132 11.7968-3.20303 14.2902-4.03685 2.49347-0.83381 6.01244-2.47605 6.73256-2.74272 0.765323-0.30138 3.98244-1.79216 5.05825-2.35644 1.07582-0.56427 3.79781-1.70142 6.16223-3.45864 3.30985-1.93414 6.43953-4.16244 9.6455-6.26202 0.82865-0.60364 1.4444-1.07598 2.5059-1.82532 6.32468 2.55567 12.5548 4.02061 19.3984 4.11591 1.49077 0.0208 3.55735-0.0302 4.219-0.16628 6.65976-0.70846 13.4036-1.97308 19.337-5.22882 5.69913-2.58695 10.5192-6.7388 14.8454-11.1941 0.57767 0.0589 3.47432 0.24677 4.08281 0.28644 5.69105 0.37106 11.5215-0.41424 16.8195-2.63242 9.78449 2.16125 20.5122 0.45935 28.9178-5.0814 3.80552-2.55658 7.04495-5.89791 9.71897-9.60809 2.93026 2.48065 5.25702 4.11311 8.77061 5.67078 7.71688 3.4211 16.7516 4.26665 24.745 1.32143z" fill="#e47197"/>
   <path d="m534.179 41.2851c0.0141-2.39441 0.19957-5.03409-1.45819-6.99075-2.2497-3.09949-6.9276-4.05969-10.1441-1.89788-2.48874 1.34199-3.70818 4.1233-3.8644 6.84534-0.43018 3.50523 0.65145 6.93066 0.83 10.4113 0.2547 2.39368 0.45466 4.79269 0.66444 7.1906 0.0863 1.37742 0.3494 3.69559 0.55708 5.38847 0.73713 6.44598 1.3451 12.9046 2.10676 19.3479 0.26108 6.88138 0.69988 13.7595 0.60566 20.6484 0.10804-0.59287 0.58006-2.76759 0.11231-1.02128-0.76815 3.70372 1.22543 7.96671 4.94038 9.18666 2.72218 1.08193 6.17848 1.2737 8.42163-0.92383 1.98773-1.90216 2.99048-4.78812 2.5999-7.51499 0.0353 1.61298 0.14811-1.77816 0.28442-2.22429 0.15233-1.0695 0.17345-3.08352 0.1985-2.88315 0.48504-4.46269 1.43017-8.85497 2.15925-13.2773 0.95327-4.13304 1.73252-8.30486 2.56192-12.4649 0.46214-2.34678 1.17461-4.64692 1.72762-6.97844 0.13632-0.249533 0.93015-3.17723 1.11723-4.4668 1.82912-4.95293 3.35738-10.1062 6.36994-14.5087 1.85041-3.10591 4.29478-5.79457 6.82942-8.34478 3.9686-3.33944 8.27174-6.34669 13.0606-8.3927 3.7594-1.62252 7.62583-3.28015 11.75-3.60534 2.28216 2.6088 6.60331 3.80147 9.4922 1.45567 3.21549-2.44883 3.27091-7.15019 1.74143-10.5615-2.22393-4.89751-8.41581-6.31694-13.2983-5.63834h-1e-5c-4.39429 0.534647-8.76003 1.57524-12.8007 3.41642-3.98946 1.44707-7.63655 3.69113-11.3128 5.78352-2.12749 1.3203-4.49702 3.00449-6.119 4.6067-3.2049 2.64331-6.23687 5.518-8.71484 8.86719-1.29831 1.85966-2.56504 3.75358-3.86012 5.62019-1.39832 2.58738-2.95479 5.12664-3.843 7.95012-0.33843 0.766107-1.68993 3.85757-2.00783 5.5-0.37029-3.49854-0.87343-6.99404-0.7074-10.5235zm-247.47 18.6082c-3.78311 3.43313-6.84332 6.10479-9.77653 10.3222-1.41094 1.90957-2.87731 4.1378-4.24645 6.25662-1.10462 1.70947-1.59525 2.95369-2.06118 4.08405-0.45782 1.1107-1.16557 2.88976-1.57868 4.72062-0.17113 0.75842-0.66366 3.11859-0.71 3.56735-0.21079 2.04144-0.44503 2.3857-0.93598 2.64333-3.15119 2.15185-3.45016 7.04383-1.0509 9.85056 2e-3 6.06715 0.16508 12.1976 1.56828 18.1289-0.26303-1.90012 0.11057 1.69469 0.37642 2.25062 0.90256 2.98284 2.11434 5.9329 3.87439 8.51585 1.59632 2.28231 3.20306 4.65029 5.55906 6.23856 1.96361 1.50604 4.13855 2.80161 6.5456 3.44614-0.82177-0.36561-1.9678-0.85376-0.39557-0.0537 3.20354 1.58868 6.88709 1.6497 10.3852 1.73004 3.92751-0.14193 7.74619-1.26843 11.4575-2.4811 2.86461-1.13995 5.71418-2.39708 8.33332-4.02756 2.08495-1.29793 4.51652-3.40715 6.72553-5.17353 1.84183-1.47278 3.66361-2.97201 5.4414-4.52149 1.86202-1.6229 4.08467-3.12074 5.46981-4.99896 0.24281 1.17318 0.58747 2.28559 1.19917 3.33701 2.16111 3.71464 6.05408 5.68773 9.80588 7.16827 5.47784 1.53196 11.2579 1.73566 16.8734 0.94384 4.42186-0.18402 10.765-1.95918 14.949-3.34715 4.51837-1.49887 8.73794-3.72978 12.7324-6.26228 5.20699-3.64559 10.2482-8.1456 12.6259-14.193 1.94766-5.35438 0.96071-11.8116-2.98346-16.0291-2.79467-3.36872-6.85427-5.28496-10.6738-7.23064-2.05226-0.802777-4.0017-1.78867-6.03198-2.65446-2.30162-0.632268-4.37151-1.93459-6.75156-2.34866 2.04799 0.677352-1.38172-0.613038-2.02997-0.821408-3.34335-1.14902-6.78533-1.98806-10.0599-3.33679 1.45839 0.580377-2.78791-1.27975-3.5467-1.46687-2.30595-0.879925-4.51983-2.09514-6.24236-3.87493 0.99882-3.22385 3.73379-5.48217 6.15939-7.66393 3.55906-2.78977 7.18079-5.59234 11.323-7.46888 1.59589-0.913138 3.79249-1.99868 4.34932 0.42629 1.21719 1.87992 3.43498 2.58568 5.53948 2.82902 3.12691 0.772376 6.40797-1.35408 7.47644-4.29047 0.75193 2.22707 2.92115 3.64896 4.98425 4.54113 1.49851 1.02718 4.08771 0.869695 6.02241 0.345379 2.96827-0.864867 5.76259-2.23717 8.72373-3.1412 1.50203-0.313916 3.84567-1.81971 4.83925-1.36709 0.0892 4.10373 0.10995 8.20723 0.28689 12.3088 0.21489 2.07677-0.22 4.13542-0.0392 6.21124 0.12499 2.14182 0.0166 3.71696-0.0876 5.67084 0.16496 4.96332-0.44652 9.9069-0.42698 14.8684 5e-3 -0.730017-0.11534 2.26545-0.11574 2.87444-0.50473 6.27387-1.15988 14.4161-1.69821 18.2941-0.55364 3.98827 0.3064 9.36772 4.39488 10.5087 2.75692 0.759 6.16081 0.69313 8.15997-1.65964 2.18447-2.50666 2.60639-5.92712 2.78449-9.20902 0.15105-2.7834 0.29343-5.53278 0.53129-8.29297 0.17542-1.61469 0.38519-4.38457 0.49572-6.43565 0.34195-5.03807 0.55608-13.2925 0.7658-18.3368 0.0284-0.683352 0.082-9.05643 0.13419-11.6339 0.0735-3.63027-0.24799-9.12432-0.10971-12.7508-0.0501-2.5137-0.17276-5.02517-0.24441-7.53823-0.13358 1.05769-0.10104 1.74622-0.0158 0.11334 1.32797-1.09342 3.98461-1.27916 5.86057-1.93475 2.55659-0.572172 4.54507-1.17878 6.93395-1.90322 3.24021-0.952782 6.82451-1.80456 9.93944-2.41703 3.13546-0.09197 6.70932-1.5181 7.76803-4.73968 1.33379-3.17925 0.66403-7.25479-2.18415-9.39085-2.08808-1.6358-5.05563-2.10099-7.50716-1.04034 1.75198-0.560765-1.61952 0.386554-2.16775 0.519203-6.33361 1.72637-12.6652 3.45716-19.006 5.15853-0.24991-3.57178 0.20086-7.12762 0.23201-10.6961 0.21767-2.44569-0.66961-4.99618-2.70001-6.46922-1.06865-0.835534-2.33818-1.43862-3.68295-1.65108l-4e-5 -2e-4c-3.46223-0.616197-7.58193 1.09853-8.61802 4.6777-0.81664 1.98003-0.34248 4.42869-0.31371 6.2439-0.24496 4.21717-0.14102 8.4503-0.0292 12.6682-1.30592 0.379015-3.6205 1.35073-3.80308 1.39847-3.9933 1.39119-7.97245 2.81371-12.0231 4.03317-0.98366-0.115433-4.11137 0.412336-5.53491 1.6004-1.28379 0.456664-2.35919 4.15941-2.46327 1.34472-1.58589-4.48741-6.29613-7.11794-10.8391-7.62559-6.00869-0.834421-11.9641 1.47738-16.9068 4.74772-0.76256 0.49542-2.73573 1.49893-4.11245 2.72181-1.24092 1.16798-3.34961 2.13827-4.75867 3.51276-4.2539 3.39718-8.39787 7.17383-10.9645 12.0557-2.37784 4.3716-3.38466 10.0623-0.87897 14.6029 2.24507 4.3798 6.80498 6.78176 10.941 9.06892 4.55268 2.15954 9.33583 3.76084 14.0881 5.40669 3.585 1.26905 7.14049 2.66662 10.7114 3.99348 0.81839 0.282277 5.15382 2.18394 5.48223 2.38434 1.84592 1.12641 5.00566 2.38375 6.22255 4.26581-0.16658 2.68121-2.52212 4.59549-4.38697 6.31757-2.0334 1.64964-4.21274 3.14112-6.54779 4.32681-1.81847 0.92338-3.85153 1.73291-5.79029 2.36603-5.30467 2.21854-11.1548 2.95909-16.845 2.76621-2.19789-0.0745-4.4669-0.35645-6.34054-1.73102-0.89435-0.65613-1.35124-2.9837-2.62891-4.16809-1.44607-1.3405-3.92658-1.5581-4.84381-1.51572-0.20806-3.52268-4.49353-5.91111-7.58156-4.47561-2.53283 0.99284-4.63629 2.8076-6.81256 4.38704-2.06429 1.8856-4.40867 3.4569-6.57142 5.23501-3.50482 2.70837-6.99704 5.48661-10.9595 7.50943-4.19706 2.19015-8.84751 4.06739-13.6624 3.78755-3.43708-0.32616-6.90557-2.26101-8.14092-5.62877-1.93794-3.18217-2.26927-6.98905-2.88962-10.5835-0.11457-1.9234-0.36351-3.85953-0.18066-5.78565 4.11971-0.60006 8.18869-1.61366 12.1131-2.99799 3.97137-1.73696 7.90933-3.60491 11.4444-6.14224 4.46451-2.62008 8.207-6.24233 11.9545-9.76802 1.09368-1.16985 3.1764-3.31623 3.73243-3.86507 0.68493-0.520575 2.29074-2.14596 3.07286-3.30932 2.7324-3.74927 4.86144-8.39377 4.2748-13.1303-0.73542-3.84725-2.39728-7.5257-5.11565-10.3794-1.87063-2.13735-4.28754-3.85314-7.04646-4.61279 1.34067 0.47381-1.95848-0.865424-2.48415-0.913964-2.0485-0.58196-4.18139-0.258493-6.26779-0.274834-3.63096 0.61159-7.15547 1.88525-10.4033 3.66218-3.4849 1.90664-6.73048 4.42185-9.85841 6.8026zm219.381 51.4227c0.84263-0.63097 2.51347-2.22891 3.75005-3.61039 1.44369-1.61286 5.37814-6.02884 6.1745-7.07092 1.26497-1.6553 2.368-3.49036 3.6047-5.28113 1.31107-1.89847 2.68912-3.89795 3.06774-6.22426 0.47244-3.65368-3.61504-6.91609-7.05947-5.49504-2.04897 0.604248-3.5237 2.11856-4.97259 3.58063-2.49939 2.15871-4.47228 4.84776-7.02514 6.95337-0.74868 0.707752-1.27912 1.38069-1.16153 1.20005-2.99911 2.76611-6.01059 5.5439-9.45329 7.75512-4.74805 3.49456-10.3859 5.75192-16.2014 6.65637-2.90965 0.44363-5.95111-0.0386-8.57928-1.35018-2.6987-1.55862-3.46744-4.77802-4.11067-7.595-0.60157-2.72794-0.87102-5.50905-0.97503-8.29743 4.20554-0.986919 7.79305-3.46009 11.5739-5.4281 1.82539-1.01008 2.70099-1.73413 3.99448-2.5323 4.28478-2.72596 8.54585-5.56073 12.1727-9.13963 3.58557-2.82048 6.40661-6.45128 9.55024-9.72114 2.9807-3.4942 5.73989-7.22984 7.69476-11.4 1.35207-1.82238 1.5981-4.0969 1.94139-6.2453 0.62448-4.49512-0.4412-9.18592-2.64615-13.1217-2.26342-3.37854-5.38307-6.50329-9.47038-7.45061-0.91917-0.242246-1.85874-0.410209-2.805-0.500336-2.88936-0.231821-5.89422 0.132398-8.48242 1.50391 7e-3 -0.03421-2.7426 1.18936-3.74317 1.79777-2.89157 1.68689-5.41899 3.92279-8.02531 6.00631-1.80606 1.693-3.91471 3.06822-5.47278 5.02577-2.58623 2.50425-4.81681 5.33813-7.19696 8.02943-2.91852 3.87876-5.28732 8.13998-7.72717 12.3275-1.41236 2.52935-2.3767 5.2765-3.31177 8.0074-0.96434 2.81639-1.40079 3.45279-1.62276 6.76646-0.14683 2.19192-2.84741 2.36872-3.79389 4.33296-1.57485 3.26828-0.8913 7.68005 2.26285 9.60485 0.014 1.17566 0.0775 2.43042 0.14382 3.34248 0.19186 2.64062 0.16053 3.6359 0.69445 6.91538 0.20626 1.26693 0.30104 3.37352 0.96018 5.27377 0.82099 2.85463 1.36274 5.97014 3.51175 8.19761 2.88008 4.50838 7.47728 7.82999 12.5864 9.37128 2.53293 0.74268 5.19273 1.11877 7.82616 1.18856 1.57423 9e-3 2.96366-0.0373 4.84302-0.17853 2.33289-0.17525 4.67214-0.75058 6.90319-1.40159 1.50815-0.44007 5.26451-1.89535 7.6509-3.14596 2.78443-1.4592 9.14262-5.06057 12.9291-8.6474zm-305.26-19.4729c-0.61156 2.56134 0.64372 5.17321 2.02777 7.09704-0.0992 1.43459 0.34037 3.48574 0.16625 2.57312-0.0656 8.62864-0.50088 17.248-0.72786 25.8715-0.2487 3.62965-0.27907 7.27355-0.55796 10.898-0.14311 3.02639 1.38557 6.22385 4.34488 7.33437 1.97684 1.2544 4.49177 0.77912 6.59135 0.15607 3.0111-1.1841 4.68307-4.47912 4.46769-7.61836 0.0176-5.81911 0.51192-11.6221 0.41235-17.4434 0.0623-3.1692 0.25923-6.33571 0.23172-9.50654-2e-3 0.86759 0.086-2.3636 0.0311-2.95078 0.20713-0.87637 1.95993 1.20552 2.75046 1.69094 4.53611 4.26137 9.4226 8.11929 14.176 12.129 2.68 1.89975 5.17963 4.10959 8.14804 5.56261-1.47307-0.84144 1.78236 1.16284 2.23948 1.41448 3.25586 2.04967 6.67237 3.86476 9.78277 6.13352 1.37432 1.61115 3.03294 3.10208 5.13374 3.66598 0.81988 0.69972 4.17311 1.21651 5.85955-0.0287 4.20365-2.05089 5.78133-7.98865 2.99913-11.7911-2.25014-3.08924-5.88966-4.62878-8.98565-6.69326-3.66067-2.18073-7.43652-4.16845-10.9767-6.55426-3.48469-1.97175-6.44768-4.69156-9.58002-7.15673-2.3836-2.10545-4.79303-4.18356-7.15782-6.30825-1.92935-1.58005-3.5257-3.55299-5.62891-4.92969 0.60301 0.114902-3.19554-1.72978-2.27101-2.23966 2.56897-1.4791 4.8711-3.38238 7.51649-4.72602 1.67578-1.14398 3.55993-2.00968 5.04749-3.42885-1.16376 0.912839 2.2686-1.56371 2.80198-1.95846 3.6814-2.78116 7.62636-5.3302 10.5398-8.97318 2.6661-1.7413 4.51918-4.4126 7.06197-6.29914 1.83691-0.03844 4.36045-1.80313 5.061-3.98232 1.90972-4.44944-1.06736-10.2797-5.94242-10.994-3.77121-0.574851-7.68871 1.1888-9.95789 4.21689 0.90546-1.03867-1.47706 1.52301-1.8376 1.90023-1.87623 2.15498-4.07309 3.98728-6.06279 6.02946-0.99905 0.965625-3.37165 2.73249-4.88281 3.95312-4.07334 3.43457-8.59923 6.2627-13.0801 9.12328-1.19568 0.560035-2.99986 2.48357-2.41209-0.06664 0.1484-6.47654 0.28872-12.9681 1.03125-19.4082 0.44694-2.62981 0.50545-5.62116 1.13657-8.33008 0.0706 0.02699 0.63784-3.17215 0.0134-4.2366-0.882-3.1575-3.68063-5.84687-7.05583-5.95081l4e-5 -2.8e-5c-4.0099-0.210349-7.45882 3.17645-8.02577 7.02677-0.54526 4.30542-0.73723 8.65855-1.39006 12.9547-0.20067 1.50908-0.19254 3.23161-0.32604 3.64347-0.42446 3.07348-6e-3 6.18202-0.2961 9.2688-0.0785 2.21147-0.10676 4.4274 0.0241 6.6375 2e-3 -1.50283-0.12233 1.92947-0.12318 2.42984-0.0314 1.12254-0.0643 3.91265 0.0345 4.20965 0.80159 2.40916-2.14189 3.37802-2.35225 5.65484zm293.799-50.1908c0.91997 0.690819 0.93986 4.57119-0.28011 6.53775-1.53063 3.05423-3.73607 5.70207-6.03435 8.20443-2.07171 2.82752-4.74424 5.11438-7.16593 7.61933-3.43472 3.0787-7.09833 5.89399-11.0187 8.32219-1.52658 1.05412-3.20627 1.85485-4.83492 2.73427 1.35841-5.08426 3.99865-9.70247 6.6872-14.1789 1.62089-2.30959 3.32586-4.54678 5.19913-6.65806 3.22-3.49324 6.56388-6.9684 10.5884-9.5615 2.08307-1.39033 5.93927-3.71031 6.85924-3.01949zm-385.435 120.18c3.56838-3.53097 6.64053-7.5935 9.08187-11.9804 1.17182-2.25078 1.93027-4.68626 2.54657-7.13908 9e-3 0.71571 0.52461 3.83154 0.78704 5.21096 1.49139 6.95809 6.55872 13.2829 13.5033 15.3494 5.84038 1.88813 12.412 1.3212 17.8348-1.56616 3.68573-2.16654 6.72901-5.33358 9.28534-8.73468 1.5639-2.04161 2.71922-4.3565 4.03242-6.54374 1.06716-1.24274 2.31237-3.73529 2.57598-4.29846 1.7195-3.286 3.20732-6.67786 4.84059-10.0051 0.45628 3.30548 1.44209 6.51839 3.0141 9.46649 1.11728 2.79491 3.29442 5.23047 6.26033 6.07195 2.47241 1.00039 5.58213 1.36481 7.74363-0.53492 3.1498-2.66185 4.191-8.01739 1.35898-11.2869-0.29662-0.73481-2.37968-1.8787-1.85314-1.72901-1.71098-3.62276-2.05799-7.66857-2.42382-11.6015-0.0218-2.09661-0.34226-4.94181-0.25794-6.50334 0.11568-2.49203-0.0831-4.9852-0.0897-7.3238-0.0548-3.44468 0.60853-6.83313 1.02492-10.2548 0.3302-2.71333 0.14507-5.46414 0.21105-8.19678-0.0134 1.21303 0.064-2.40665-0.51307-3.01181-0.59317-1.72122-1.87098-3.3736-3.11714-4.45031 0.19802 0.439613-1.08666-2.03768-1.60619-2.66249-2.27502-3.29296-4.97069-6.38017-8.48037-8.39512-4.02462-3.23695-9.56632-4.0775-14.5488-3.0955-3.06135 0.255695-5.83058 1.74736-8.42782 3.26792-3.77393 2.5799-7.06856 5.78316-10.2062 9.08604-3.93429 4.77362-6.90525 10.2444-9.79453 15.6832-1.55881 2.75499-1.96535 4.46644-3.06081 7.09364-1.24927 2.36474-2.24388 5.96341-3.20015 8.4458-0.64909 2.32127-1.28013 3.39913-1.88585 5.54707-0.93158 3.30347-1.91815 6.4781-2.23065 10.7412-0.3607-1.06143-0.76703-2.41077-0.85478-2.80466-0.14232-0.63884-0.44816-2.13448-0.78633-2.67676-2.1389-5.38431-5.76421-10.0146-9.7664-14.1356-1.45742-1.38961-3.16707-2.37281-4.0724-3.31061-5.92337-5.1148-13.5205-7.60518-20.9545-9.60527-4.64955-1.16806-9.41082-1.89439-14.1973-2.16614 2.17423-1.64659 3.50301-4.09011 5.60468-5.79586 2.74499-2.74728 5.59756-5.55346 7.26446-9.12016-0.859731 1.52143 1.26121-1.87898 1.54535-2.39827 3.37122-5.56683 4.69505-12.7219 2.01297-18.836-1.24255-3.12979-3.80617-5.43628-6.40678-7.44185-2.16058-1.52717-4.81901-1.92622-7.25638-2.81031-2.16385-0.543488-3.89758-0.670623-5.73683-0.949717-0.950256-0.08464-1.90596-0.06685-2.85753-0.01694l2.7e-5 -3e-6c-2.58527 0.01391-5.14948 0.237395-7.7167 0.551071-4.82675 0.45645-9.51628 1.75973-14.1295 3.18167-3.18802 0.994829-6.38807 1.99188-9.47456 3.26906-4.90918 2.18443-9.61901 4.97808-13.5462 8.67478-1.69941 1.99772-3.63006 4.1072-4.07547 6.78096-0.543486 3.37819 1.48686 7.13493 4.87991 8.06005-1.75005-0.676581 1.63093 0.847558 2.24569 0.671603 1.66015 0.708748 4.64095-1.86921 4.00962 1.04786 0.10658 2.46329 0.342536 4.91909 0.520081 7.37819 0.130296 1.80466 0.314802 3.60597 0.4001 5.41332 0.225749 4.78331 0.241461 9.57454 0.295116 14.3629 0.01542 1.37585 0.0065 2.75186 0.0077 4.12779 0.0041 4.62714-0.02686 9.25436-0.0015 13.8814 0.01647 3.00477 0.105769 6.00908 0.09979 9.01388-0.0031 1.54914-0.07145 3.09777-0.06994 4.64691 0.0024 2.45437 0.108953 4.90773 0.125109 7.36204 0.04536 6.89128-0.193409 13.7825-0.07912 20.6741-1.97067-0.63024-3.3567-1.25215-5.02175-1.91244-2.0758-0.82317-3.84549-2.5365-6.1931-2.55436-3.22558-0.74732-6.95846 1.601-7.06667 5.05442-0.261224 2.70494 1.76812 4.75474 3.3778 6.64499 3.51997 3.60155 8.52727 4.93933 13.0854 6.76544 1.30061 0.52107 2.66879 0.86573 4.03385 1.1815 3.61204 0.83556 7.28908 1.37741 10.9625 1.87873 2.73466 0.37321 5.47776 0.79267 8.23737 0.83934 5.942 0.1005 11.9251-0.23318 17.7877-1.20644 5.3372-0.88603 10.5676-2.42203 15.6798-4.193 2.24389-0.77733 4.4126-1.76831 6.54596-2.81141 2.27681-1.11324 4.54136-2.27743 6.65827-3.67093 4.39997-2.89637 8.81279-5.87029 12.4798-9.69501zm-68.4734-94.9475c2.51529-1.07126 5.06819-2.08017 7.68204-2.88696 1.40912-0.434935 2.85228-0.757953 4.29808-1.04856 3.21284-0.645779 6.43347-1.46736 9.70974-1.54133 3.54008-0.07992 7.20813-0.105802 10.5561 1.19028 1.35149 1.57695 0.321087 3.79258-0.26829 5.54764-0.980202 2.91886-3.34251 5.1798-5.21298 7.6256-0.631061 0.825168-1.32789 1.59858-2.02223 2.37125-1.38764 1.54418-2.79457 3.07437-4.28163 4.52305-1.06188 1.03448-2.19448 1.99402-3.30865 2.97195-2.52664 2.2177-5.07734 4.40841-7.6557 6.56575-1.95417 1.63507-3.95127 3.20861-5.92181 4.83343-1.79381 1.24688-0.449762-2.6863-0.931527-3.69467-0.09939-2.24578-0.357762-3.9073-0.299655-5.60654-0.261298-4.67416-0.853566-9.33785-0.690772-14.0266 0.124002-3.5715-1.14155-5.21169-1.65268-6.82424zm268.186-3.0413c1.93314-0.315285 3.25626 1.61786 3.57022 3.28045-0.16149 2.212-2.14 3.7685-3.46003 5.37551-3.1835 3.37357-6.54477 6.59566-10.3016 9.33013-4.53881 3.42464-9.77932 5.94869-15.2754 7.39478 0.7203-3.11544 2.292-5.95921 4.10743-8.56641-1.03785 1.3192 1.35657-1.53144 1.63257-2.01413 1.52472-2.01893 3.34612-3.85071 5.21472-5.5781 3.35926-3.10033 7.01361-5.93233 11.0416-8.10639 1.09988-0.513607 2.2507-0.99718 3.47046-1.11584zm-152.75 70.8095c-2.64261 4.23078-4.78161 8.86989-8.33793 12.4427-1.36548 1.53167-3.25959 2.25741-5.25942 2.48377-2.81187 0.22969-5.51382-1.91437-6.09622-4.66267-1.60169-4.31149-0.8241-8.9906-0.33397-13.4331 0.69589-4.88954 2.02957-9.65935 3.42394-14.3848 0.82877-2.01261 1.33833-4.1262 2.25953-6.10703 0.96131-3.14352 2.73322-5.93885 3.9171-8.99144 2.28115-3.9543 4.60087-7.91126 7.31764-11.5924 2.76564-2.60864 5.37463-5.62532 8.94457-7.14034 0.95465-0.293093 1.95615-0.556994 2.96381-0.486589 2.15254 0.165938 3.57965 2.0515 5.09375 3.38086 1.19378 2.51506 3.20549 4.99254 2.67115 7.95698-0.52883 2.63062-1.68133 5.08931-2.61586 7.58989-0.96125 2.22105-1.76293 4.50592-2.65685 6.75391-0.18496 0.328-1.73999 4.43175-2.27149 5.74023-1.74686 4.30057-4.14583 11.2094-6.39875 15.2772-0.93074 1.68052-1.88937 3.77337-2.621 5.17292zm-92.1658-26.2646c4.66978 0.19205 9.36168 0.39517 13.9738 1.15134 3.23933 0.53109 6.45621 1.2958 9.55886 2.36765 1.92906 0.66642 3.78525 1.54694 5.5845 2.51031 0.750282 0.40172 1.50781 0.81367 2.16222 1.35778 3.67426 3.055 7.61257 6.25191 9.71102 10.5449 1.65436 3.38448 2.28976 7.4057 1.85691 11.1479-0.34696 2.99965-1.94915 5.76259-3.48902 8.3601-1.47368 2.48586-3.4051 4.69434-5.41684 6.76899-1.41615 1.46044-3.03498 2.71501-4.64534 3.95803-2.02555 1.56351-4.07326 3.12409-6.29607 4.39158-2.91839 1.66412-6.0101 3.04217-9.17188 4.17773-3.71504 1.33427-7.53477 2.47675-11.4374 3.06954-6.74306 1.02424-13.6495 1.86952-20.4454 0.80363-1.51163 0.0446-2.44098-0.34539-2.06912-1.98589-0.06017-0.18166-0.250604-3.12644-0.285124-4.69342-0.04732-2.14814 0.08248-4.29657 0.107144-6.44509 0.04476-3.89847 0.08409-7.79723 0.07412-11.696-0.0051-1.99695-0.04378-3.99368-0.0686-5.99049-0.04605-3.70449-0.124321-7.40863-0.14901-11.1133-0.0099-1.49215-6.1e-5 -2.98436 3.55e-4 -4.47654 6.8e-4 -2.43686-0.01903-4.8735 0.0035-7.31057 2.96304-1.20839 5.28623-3.63751 8.27013-4.71946 3.8747-1.40495 8.06578-1.81421 12.1712-2.17877h3.8e-5z" fill="#fff"/>
  </g>
  <path d="m49.56 178.112c-2.02345-0.38014-4.02552-0.3226-6.06067-0.64579-3.24254-0.52057-6.52906-0.81742-9.72042-1.60562-1.66503-0.46658-3.4835-0.57273-5.06957-1.30097-2.85635-1.09667-5.82691-1.89323-8.47041-3.46689-1.64426-0.81288-3.13557-2.05477-4.07027-3.63878-1.00261-1.01651-0.38373-1.8197 0.585888-0.84971 0.980623-0.75654 2.43999 0.77352 2.73892 1.20814 1.33188-0.1666 2.64579 1.50301 3.82654 1.57263 1.7018 0.6108 2.37391 0.83863 4.05034 1.28323 1.9368 0.0589 3.55434 1.44006 5.42485 1.36871 2.27043 0.65182 0.75062-3.15111 1.15334-4.45553-0.02944-2.63694-0.01-5.32027-0.083-7.9259 0.09376-2.8785 0.0465-5.74614 0.131653-8.62556-0.02143-2.86152 0.0047-5.68195 0.02738-8.52355 0.204367-1.7737-0.259291-3.78837-0.09023-5.65948 0.05613-1.82153 0.02658-3.63966-0.0065-5.45698 0.06895-1.75002 0.06134-2.54709-0.08244-4.33496-0.07335-1.84698 0.123464-3.73194-0.01408-5.4218 0.0041-2.00739-0.03227-4.00358 0.02339-6.01605 0.0783-1.72536-0.09225-3.64923-0.0074-5.454-0.06619-2.57448 0.108996-5.1449-0.09447-7.71723 0.14969-1.93025-0.01365-3.76572-0.03641-5.70954 0.103838-3.80118-0.364039-7.53443-0.604069-11.3254-0.436684-3.71197-0.516107-7.45315-0.729948-11.1819-0.118424-1.43032-0.975245-3.69864 0.965375-4.20904 1.95482-1.27303 4.21137 0.699964 3.71315 2.85047 0.04338 2.37718-0.01543 4.75862 0.181095 7.12824-4.53e-4 3.02429 0.571922 6.00616 0.526639 9.02737 0.06468 2.03018 0.346866 4.06116 0.330376 6.13446-0.01569 3.40738 0.201833 6.81839 0.08407 10.2183 0.262317 1.73203 2.50816-1.02024 3.57401-0.99047 2.05952-0.9129 4.14532-1.81319 5.90237-3.25761 1.34718-1.07199 2.68236-2.11262 4.06134-3.09242 1.32191-1.60846 3.40308-2.41673 4.67938-4.10006 1.8679-1.52797 3.64723-3.29497 5.54789-4.7701 0.996756-0.876734 1.97222-1.94586 3.12628-2.87837 1.3147-1.66197 2.83208-3.0611 4.30583-4.58906 1.21964-1.62249 2.64156-3.04908 4.08371-4.48782 1.08198-1.43193 2.10162-3.15316 2.89286-4.55887 0.892803-1.58111 1.63448-3.21518 2.19756-5.00908 0.733875-2.74118 0.601656-5.85918-1.23428-8.15573-1.98384-2.57643-5.45781-2.82297-8.42932-3.27838-4.45468-0.284399-8.98808-0.218191-13.3672 0.704191-2.86965 0.308206-5.58397 1.4003-8.40875 1.94019-1.91928 0.480239-3.75084 1.20493-5.59476 1.94606-1.82688 0.72081-3.68684 1.29878-5.37697 2.33512-1.77262 0.744486-3.30659 1.92621-5.02539 2.80931-1.78484 1.48946-3.71703 2.86862-5.09489 4.77332-0.168187 2.15928-2.17766 1.71175-3.461 1.12478-1.3631-0.398827-1.87907-2.26355-0.650601-3.27882 0.614415-1.56042 1.83686-2.61081 3.08704-3.62833 2.2989-1.93628 4.86148-3.53522 7.46151-5.0167 2.15205-0.912208 4.13702-2.09954 6.39176-2.72266 2.5119-0.879795 5.00051-1.84462 7.6021-2.42906 1.9443-0.745797 4.00932-1.19365 6.05891-1.63979 3.19762-0.779189 6.49915-0.939312 9.75775-1.35504 2.07942 0.14411 4.16641-0.342226 6.24983 0.08095 1.96049 0.33285 4.04689 0.391863 5.84973 1.28987 1.94658 0.296433 3.88838 1.1744 5.10839 2.70236 1.77531 1.19217 2.88954 3.06946 3.48313 5.07418 1.07777 3.46384 0.527356 7.31348-0.97926 10.5668-0.780638 1.80966-1.86954 3.46309-2.94714 5.1323-0.813556 1.7367-2.0255 3.18386-3.27532 4.6128-1.54973 1.59328-2.99924 3.32446-4.72649 4.68549-0.962072 1.71704-2.50498 2.97661-3.96366 4.23827-1.55944 1.39187-3.06927 2.84674-4.66648 4.23733-1.54421 1.31-2.8985 2.80105-4.5071 4.02146-1.22762 1.45376 2.37553 0.268473 3.22324 0.468866 4.62493-0.264634 9.26182-0.01469 13.8515 0.558469 2.97213 0.389849 5.96009 0.889331 8.88038 1.6411 2.62978 0.66124 5.21954 1.51399 7.78281 2.39416 1.68797 0.63603 3.37991 1.33682 5.02619 2.10302 2.25678 1.28598 4.61183 2.65083 6.52408 4.46779 1.6054 1.37474 3.47236 2.51043 4.81651 4.23686 2.03063 2.28895 4.00193 4.67145 5.43942 7.38172 0.96109 1.80378 1.89432 3.62878 2.27294 5.62731 0.68798 1.84223 1.17758 3.94923 1.03472 5.85903 0.37867 1.48131-0.0443 3.46937-0.12417 5.12005-0.33423 2.01559-0.94939 4.01523-1.70556 5.88781-0.43597 1.43052-1.09631 2.89196-1.8892 4.22929-0.9575 1.54185-1.94341 3.12329-3.10291 4.53297-1.18147 1.54631-2.41154 3.13847-3.78299 4.48318-1.71774 1.65819-3.39096 3.34263-5.25633 4.82226-1.53154 1.0574-2.8894 2.34416-4.5691 3.21305-1.62777 1.24586-3.46761 2.17014-5.2072 3.19775-1.3833 1.34165-3.42832 1.47024-4.89884 2.63978-1.80925 0.79667-3.44839 1.1605-5.1095 2.0075-1.93139 0.6701-3.85766 1.3425-5.78211 1.99274-1.74554 0.54214-3.55368 0.98772-5.38438 1.30966-4.33236 0.47158-8.65228 1.37042-13.0361 1.43176-2.44506 0.10342-4.89468 0.0721-7.33921 0.0906zm4.67126-3.34236c2.04724 0.0433 4.10053-0.27918 6.15661-0.35983 2.66366-0.39217 5.33751-0.62009 7.96584-1.21231 1.86957-0.24105 3.647-0.94123 5.48254-1.07786 2.14346-0.59543 4.31969-1.24368 6.33858-2.24571 1.78029-0.38874 3.02966-1.19769 4.76206-2.00948 1.59499-0.82216 3.13917-1.746 4.82888-2.39841 1.62829-1.13755 3.33738-2.13786 4.91952-3.28668 1.61412-0.59146 2.36542-2.56333 4.06658-2.9212 0.535835-1.28526 2.49275-2.23032 3.4355-3.49999 1.25346-1.57385 2.84232-2.79324 3.91263-4.51064 1.14925-1.49307 2.05545-3.16044 3.06987-4.73096 0.99033-1.4406 1.59589-3.19973 2.14601-4.89384 1.10961-3.76778 1.45884-7.8019 0.69442-11.6802-0.2952-1.92883-1.04078-3.81969-2.04758-5.49284-1.26172-2.72472-3.18848-5.10285-5.0916-7.41612-1.30596-1.12714-2.23949-2.47622-3.67643-3.49822-1.93779-1.52787-3.99725-2.9265-6.17995-4.063-1.94965-0.752-3.64521-2.04066-5.69391-2.55069-1.82866-0.87841-3.85878-1.24264-5.75863-1.88343-4.73723-0.65416-9.45009-1.68691-14.2567-1.78983-1.95636-0.0128-3.9387-0.33733-5.87651-0.13138-2.38789 0.12645-4.76975 0.27156-7.11383 0.71505-2.53504 0.26144-4.98224 1.09415-7.2717 2.16072-1.51573 0.89376-3.01272 1.72252-4.44366 2.776-2.00393 1.24715-4.18049 2.19347-6.26752 3.2692-0.285076 2.12545-0.0078 4.34854-0.128459 6.5109 0.0465 2.89021 0.05282 5.80227 0.04339 8.71049 0.171087 4.86076 0.119029 9.73501 0.16931 14.5956 0.115338 2.75388-0.02576 5.53203-0.05318 8.29368-0.01154 1.58067 0.08633 3.32671 0.04296 4.98524-0.126764 2.10306 0.286785 4.53405-0.263879 6.42959 0.393365 1.42389 0.308267 3.90594 0.427179 5.79944 0.259037 1.93078-0.394354 4.53636 0.877781 6.03778 1.94872 0.53142 3.98547 0.68592 5.99258 0.87449 1.88996 0.25546 3.73295 0.44299 5.64077 0.54401 1.05016 0.0195 2.10211 4e-3 3.15052-0.0495zm86.8582-15.7144c-2.94074-0.23075-5.87613-1.05081-8.29826-2.78598-1.72278-1.22751-3.10528-2.90269-4.15112-4.69032-0.94514-1.61465-1.5401-3.44096-1.96415-5.25887 0.0864-1.31418-0.65001-1.40472-0.46931-2.87059-0.45385-2.06618-0.26257-4.20297-0.3343-6.32788 0.25679-1.57707-0.0344-3.58396 0.89037-4.83445-0.7827-1.36637 0.59881-3.09434 0.33336-4.64714 0.20827-1.70274 0.80759-3.33258 1.01171-4.64035 0.69687-1.7253 0.88109-3.63799 1.54301-5.41448 0.68896-2.04247 1.1136-4.14001 1.96055-6.13388 0.49761-1.44832 0.883-2.87277 1.5838-4.12641 0.55237-1.38268 1.16366-2.93369 1.76536-4.38578 0.50057-1.95455 1.78002-3.5469 2.53032-5.33642 0.88305-1.63328 1.67113-3.31633 2.70182-4.88393 1.55446-2.70287 3.23305-5.33234 5.16783-7.78078 1.36611-1.69136 3.12835-3.04344 4.59698-4.656 1.66645-1.54302 3.49301-2.99287 5.39282-4.28198 1.85992-0.749135 3.57703-1.9353 5.6177-2.12489 3.06577-0.673675 6.38429-0.406882 9.2239 0.979205 2.2805 1.81754 5.03698 3.10201 6.78186 5.52862 1.29395 1.46542 2.43143 3.07294 3.33569 4.80728 0.80654 1.91029 3.36882 2.53041 3.06233 4.94394-0.0472 2.58214-0.29602 5.17001-0.1854 7.76543-0.99782 4.0323-1.12269 8.22452-1.03069 12.3773 0.0657 1.9801 0.15834 3.87537 0.0557 5.90067-0.0471 2.46036 0.32489 4.89332 0.30049 7.35226 0.45871 3.69472 0.64876 7.52521 2.17204 10.9649 0.50242 1.72634 1.27568 3.5297 2.91564 4.31524 1.55677 1.51366 0.3248 5.654-2.13389 4.23105-2.26695-0.12738-3.35633-2.31258-4.1743-4.11963-0.7687-1.51279-1.40441-3.00364-1.79503-4.61321-0.41598-1.76694-0.89424-3.511-1.05294-5.33303-0.1225-1.91786-0.39948-3.76681-0.46879-5.69509-0.15819-2.1932-0.33722-4.38863-0.37321-6.59575-0.0305-2.15388-0.1306-4.39069-0.13405-6.48938-1.26706-0.44747-1.63311 2.81908-2.24016 3.9004-1.13338 1.43268-1.08249 3.6935-2.24794 4.962-0.2533 1.66238-1.15041 3.52223-1.7205 5.23214-0.4799 1.4163-1.18379 2.68684-1.67061 4.12291-0.7915 2.10802-2.09299 4.01719-2.87476 6.11327-0.95738 1.81011-1.79591 3.69231-2.75419 5.49924-0.83445 1.83583-2.36476 3.27542-3.11815 5.17382-1.1954 2.24204-2.58095 4.39335-4.20838 6.33725-1.71784 1.98487-3.63886 3.82454-5.81364 5.3175-1.93014 0.84674-3.83553 1.82596-5.96221 2.02857-1.27725 0.24929-2.61729 0.12976-3.76733 0.17331zm1.40474-4.01773c2.01991-0.39996 4.12919-0.62404 5.95174-1.69849 1.87687-1.21973 3.58027-2.75232 4.9693-4.51173 1.0702-1.40737 2.15122-2.72225 2.96506-4.2889 1.69768-2.29535 2.83809-4.87609 4.3896-7.25914 1.00234-1.6011 1.44408-3.45666 2.53042-5.02547 0.78195-1.50437 1.37842-3.04831 2.14938-4.5891 0.80586-1.88088 1.57355-3.81745 2.38115-5.72874 0.72543-1.81362 1.29201-3.69289 2.13072-5.45203 0.68737-2.08187 1.47875-4.06985 2.40627-6.04675 1.082-2.69675 1.97697-5.47795 3.23205-8.11275 0.61865-1.95005 1.57038-3.75645 1.99297-5.74718 0.87899-2.94962 0.606-6.19369-0.79298-8.92849-1.04311-1.94285-1.65277-4.18097-3.42012-5.60875-1.44695-1.53382-3.08573-2.90085-4.91186-3.94677-2.0753-0.632527-4.26382-0.863111-6.38942-0.317704-3.32056 0.57713-6.10462 2.63462-8.52803 4.86449-1.6301 1.3133-3.04216 2.87968-4.55767 4.30839-1.26794 1.79716-2.60824 3.57166-3.71274 5.49161-0.98142 1.63847-2.10335 3.20623-2.96 4.92435-1.03562 1.4438-1.78556 3.11894-2.4 4.78882-0.9312 1.89042-2.00911 3.74874-2.63771 5.78776-0.64871 1.87478-1.66912 3.64444-2.02172 5.59764-0.62708 1.48831-1.24743 3.13403-1.56272 4.77263-0.75519 2.40322-1.25776 4.89287-1.93785 7.30074-0.51009 2.96277-1.15748 5.92303-1.27059 8.93972-0.46939 2.95622-0.31672 5.99543 9e-3 8.95067 0.69314 2.57081 1.24995 5.41959 3.19018 7.37883 1.34324 1.55766 3.11597 2.93 5.16499 3.48787 1.16772 0.42371 2.50133 0.4478 3.64047 0.66847zm66.2658-13.9976c-2.32732-0.41837-1.58948-3.07613-1.56752-4.86571 0.16212-2.88118 0.18214-5.74888 0.40219-8.62093 5e-3 -2.2191 0.25758-4.43892 0.18444-6.66723 0.15031-3.01958 0.21197-6.03588 0.32043-9.05938 0.11695-1.84245 0.13273-3.66067 0.15611-5.51795 2e-3 -1.72688 0.0699-3.33619 0.071-5.0912-0.27829-1.74957 0.41072-3.5391-0.12664-5.29825-0.47889-0.562548-1.50285-0.20978-1.9024-1.27575-1.8882-2.43086 3.03875-2.9284 2.0386-5.4396 0.51663-1.32303-0.0239-2.30409 0.21954-3.48856-0.18423-2.13663-0.11377-4.33816 7e-3 -6.479-0.18152-3.0809-0.0106-6.25529 0.11069-9.36089 0.12236-1.92822-0.17128-3.91304 0.17987-5.85878 0.19767-1.91384 0.13506-3.86251 0.62255-5.73674 0.10951-2.3025 0.58257-4.5435 0.62199-6.85673 0.45043-1.80993-0.13931-4.07002 1.40858-5.4996 1.93478-1.84871 4.37227 0.865847 3.69559 2.93318-0.76301 2.90062-0.79812 5.94364-1.2553 8.90315-0.51693 3.49721-0.54041 7.03641-0.82733 10.56-0.10475 3.19656-0.18553 6.37194-0.26092 9.56867 0.0124 3.60876-0.16208 7.24323 3e-3 10.8354 1.73518-0.512642 3.22043-1.8927 4.86923-2.7416 1.70509-0.894692 3.19289-2.05891 4.8684-3.01667 1.8193-1.04424 3.59258-2.21336 5.32107-3.41447 1.68604-1.08992 3.42412-2.10944 4.95883-3.37297 1.45999-1.0071 2.78853-2.08204 4.14471-3.19934 1.7946-1.45415 3.6983-2.75916 5.3538-4.39527 1.2502-1.31574 2.68052-2.50033 3.94268-3.79224 1.43309-1.47649 2.85607-3.04421 4.28975-4.51915 1.09658-1.4005 2.97578-2.34922 4.74581-2.28365 1.90028 0.263837 3.09878 3.07763 1.62463 4.44492-2.06205 0.06611-3.64794 1.56133-5.08979 2.95063-1.80794 1.63611-3.24211 3.71064-5.4063 4.93316-1.11735 1.55302-2.60344 2.69637-4.00408 4.01736-3.02788 2.23336-5.99779 4.54554-9.10335 6.6727-1.47843 1.29607-3.23689 1.89405-4.71569 3.15999-1.66494 0.768436-3.12153 1.83109-4.60227 2.88326-2.56525 1.70854-5.17981 3.27642-7.81394 4.89034-1.19404 0.355584-2.28782 1.39081-0.49405 1.92624 2.69968 1.82951 5.24507 3.84512 7.80205 5.87268 1.77739 1.23535 3.07552 3.01249 4.84144 4.26 1.31062 1.35688 2.87361 2.51997 4.29756 3.78 2.41082 2.31015 5.03501 4.37865 7.66191 6.42262 1.56889 1.34699 3.21405 2.58187 5.02765 3.58433 1.82206 1.19167 3.67408 2.354 5.5382 3.47031 1.72679 1.20813 3.75606 1.96929 5.52956 3.19488 1.62591 0.82659 3.08486 1.95737 4.67993 2.8529 1.27289 0.89901 2.69505 1.69249 3.59174 2.98631 0.62061 1.4861 0.0301 3.90534-1.88468 4.02868-1.27424-0.87343-3.11573-0.68794-3.68712-2.51768-2.31535-2.2073-5.23945-3.57522-7.92267-5.24701-1.96828-1.29544-4.06011-2.40004-6.02197-3.68891-1.85606-0.89966-3.46383-2.3116-5.174-3.47218-3.11159-2.15046-5.78563-4.85991-8.81277-7.1219-2.5387-2.19193-5.13456-4.33908-7.55314-6.67234-1.70295-1.37566-3.45297-2.5929-5.14218-3.99483-1.45748-1.2338-3.11788-2.20592-4.59742-3.43128-2.12008-1.84228-1.00345 2.25635-1.33545 3.40025-0.0225 3.22921 0.13831 6.44441-0.10359 9.6687 0.0284 4.01111-0.31718 8.00378-0.231 12.0132 0.0493 2.44558-0.23107 4.91956-0.17014 7.33897-0.32839 2.92286-0.1235 5.84709-0.3051 8.78553-0.11695 1.259-1.50894 1.94625-2.63103 1.65056l-0.26106 0.0845-0.12741-0.0755zm82.857-4.81434c-1.99568-0.34387-4.16043-0.33995-5.93901-1.4183-2.00021-0.54951-3.77493-1.82266-5.42476-3.07188-1.28177-1.08738-2.63772-2.38093-3.27037-3.89044-1.1157-1.18284-1.60203-2.86515-2.39513-4.2821-0.68464-1.57687-1.37673-3.40171-1.49049-5.21829-0.45942-2.12017-0.90134-4.24749-1.04441-6.41857-0.21842-1.74061-0.17046-3.60606-0.34899-5.35764-0.0802-1.52336-0.0105-3.34107-0.0611-4.94478 0.42793-1.48467 0.28245-3.17166-1.35879-3.84064-0.76354-1.05532-9e-3 -2.16223 1.03372-2.58298 2.03587-0.583157 1.44082-3.24859 2.08655-4.86214 0.36211-1.64003 0.34469-3.54368 1.07846-4.95909 0.32354-1.82432 1.53524-2.75925 1.79967-4.55716 0.81188-1.15916 1.53223-2.74452 2.53073-3.936 1.09165-1.41876 2.23818-2.87315 3.26689-4.32562 1.9494-2.35789 4.25329-4.42582 6.43427-6.56998 1.26372-1.19145 2.686-2.35344 4.0848-3.45449 2.0076-1.46057 3.76733-3.28729 6.01958-4.37522 1.67784-1.39302 3.81835-1.92509 5.78135-2.76099 1.21262-0.217361 3.83684-1.12386 4.32139-0.539317 1.6079-0.530795 3.86483 0.165251 5.55233 0.854229 2.81633 0.800267 4.75085 3.15396 6.40022 5.42596 1.01306 1.69528 1.60497 3.69342 2.03916 5.62901 2e-3 2.20197-0.73131 4.42204-1.7824 6.35372-1.07403 1.78915-2.22292 3.58201-3.86806 4.9271-1.37521 1.31099-2.67964 2.72518-4.00262 4.1129-1.26129 1.25843-2.52699 2.37322-3.85157 3.55708-1.71071 1.46712-3.34343 3.03371-5.26119 4.23902-1.77092 1.11824-3.52868 2.30422-5.2992 3.43631-1.76199 1.02402-3.61804 1.85517-5.43834 2.69887-2.53151 1.33696-5.4118 1.82801-8.136 2.64735-2.82114 0.633253-5.68359 1.15391-8.58267 1.1295-0.85285 1.5196-0.45856 3.86165-0.5795 5.74711-0.0118 1.7196 0.14929 3.45086 0.23463 5.08458 0.26051 2.54035 0.81772 5.01173 1.34689 7.50343 0.40982 1.73799 1.03176 3.5428 1.99974 5.07415 0.92705 2.16099 2.31792 4.21024 4.22713 5.62581 2.4986 1.9596 5.66689 2.97354 8.80174 3.25482 2.72142 0.17862 5.39297-0.38734 8.01951-1.03415 2.02674-0.67353 3.98302-1.38224 5.8965-2.28997 2.08468-0.97545 4.07868-2.15385 6.0752-3.29996 1.98971-1.55604 4.24429-2.79773 6.11871-4.51323 1.49819-1.11994 3.04233-2.27539 4.53337-3.51038 1.42241-1.12337 3.03357-2.07172 4.24279-3.44119 1.49056-0.93503 2.83773-2.09877 4.3544-2.95204 0.89877-0.46352 1.76151-0.45886 0.59018 0.14767-1.02829 0.8563-1.4443 2.30807-2.53928 3.22927-1.17899 0.9799-2.75078 2.7149-3.01302 3.5031-1.23764 0.13548-1.66611 2.50011-3.32 2.7565-0.95798 1.10101-2.54763 2.5685-3.99058 3.65937-1.08177 0.89228-3.36972 1.79044-3.41817 3.06581-1.17635 1.23969-3.01315 1.9327-4.27143 2.67751-1.37265 1.11246-3.18125 1.7642-4.7864 2.63489-2.20633 1.09539-4.53191 1.94054-6.94191 2.46739-2.37948 0.68071-4.81684 1.1689-7.30494 1.00781-0.3828-0.0107-0.76926 9e-3 -1.14958-0.0437zm-13.497-40.8095c2.88085-0.113305 5.77838-0.606301 8.50044-1.56076 2.02219-0.619274 3.9628-1.39916 5.89956-2.25534 2.36464-1.07783 4.69917-2.29612 6.8492-3.74899 1.78705-1.10265 3.40669-2.47883 5.07044-3.76894 1.74725-1.26922 3.31343-2.83428 4.82007-4.32206 1.91764-1.72929 3.65166-3.63962 5.37633-5.54941 1.14139-1.42645 2.22977-2.88156 2.7947-4.64834 0.81823-2.36297 0.25766-5.07187-1.25595-7.04944-0.92358-1.97729-3.0026-3.36273-5.12766-3.79948-3.38557-0.700197-6.78926 0.738752-9.67371 2.39799-1.62753 1.00508-3.21607 2.16795-4.80624 3.236-1.6304 1.21064-3.18621 2.4748-4.65662 3.84656-1.90602 1.63433-3.72323 3.38768-5.32847 5.30894-1.41234 1.08559-2.22686 2.82739-3.40937 4.16386-1.50861 2.20585-2.92378 4.5006-3.83638 7.02935-1.04375 2.06742-1.37266 4.38081-2.02103 6.58398 0.075 1.19004-1.34161 3.79297-0.0954 4.19097 0.29756-0.0478 0.59929-0.06041 0.90008-0.05488zm73.7826 31.5799c-2.5543-0.13359-5.0969-0.4912-7.57057-1.1397-1.84646-0.71936-3.62704-1.51238-5.23993-2.67031-1.39534-1.04224-2.04753-2.94999-1.63581-4.53038-0.0274-1.23417 1.70711-4.69695 2.33525-1.95163-0.25743 2.05859 1.43274 2.73796 2.73662 3.70109 1.78083 1.2451 3.80593 2.24678 6.03235 2.31176 1.91855 0.28069 3.88178 0.59574 5.80652 0.34666 4.56959-0.19269 9.17668-0.64034 13.535-2.10333 1.85411-0.38947 3.82369-1.77215 5.56966-1.6474-0.0894-0.90846 3.09239-1.25701 4.03404-2.25942 1.82022-0.71587 3.37439-1.98531 4.97799-3.10467 1.98911-1.34683 3.71549-3.05371 5.37613-4.78627 1.41187-1.69396 2.48294-3.72112 3.03842-5.85175 0.26664-1.98577-0.48224-3.89898-1.78646-5.37243-1.51006-1.59468-3.45524-2.7545-5.36877-3.7804-1.00838-1.04667-3.05678-1.42723-4.43362-2.30092-1.92747-0.777097-3.86109-1.54127-5.81549-2.26776-2.53956-0.990317-5.12597-1.82698-7.61924-2.90475-2.04242-0.435172-3.95926-1.42574-5.97139-2.04366-2.86265-0.910857-5.63436-2.1235-8.38572-3.32361-2.68396-1.4708-5.44273-2.97986-7.63238-5.14699-1.2676-1.58309-2.2654-3.54197-1.99484-5.63488 0.0682-1.81806 0.60467-3.64798 1.41692-5.24665 1.20049-2.1683 2.53792-4.31544 4.37521-5.99546 1.12705-1.29214 2.51553-2.51657 3.90267-3.58248 1.654-1.4015 3.32598-2.82221 5.20343-3.89928 1.08956-0.583925 2.5452-2.07887 3.98315-2.83454 1.97072-1.19618 3.91143-2.44541 6.05576-3.29689 2.28775-0.916868 4.81838-1.39005 7.2924-1.28219 2.09523 0.265085 4.41148 0.698763 5.96047 2.21377 1.56043 1.04598 1.59882 2.80335 1.69375 4.41647-0.21721 1.28383-0.88682 2.90733-2.44258 1.92876-2.18746 0.408881-2.22551-1.80694-1.90389-3.1158-0.41367-1.13977-1.86701-1.55425-2.99454-1.42106-2.69952-0.06757-5.37317 0.611513-7.7077 1.95362-2.17369 1.0549-4.34442 2.11751-6.24557 3.62067-1.50535 0.994595-3.13122 2.16774-4.43998 3.18323-2.70614 2.04723-5.19351 4.36491-7.28789 7.03397-1.15464 1.601-2.20925 3.42412-2.49685 5.41538-0.23391 2.00679 0.82935 4.02575 2.43504 5.1732 1.50491 1.60784 3.4712 2.61311 5.46968 3.55864 1.75239 0.887863 3.70933 1.40153 5.44182 2.26455 1.68909 0.588505 3.24889 1.30653 4.97143 1.74607 2.60735 0.770215 5.20144 1.54238 7.71625 2.58124 1.8901 0.418618 3.44692 1.57739 5.37323 1.8931 1.82096 0.639311 3.2664 1.80222 5.15765 2.20735 2.17964 0.980815 4.35651 2.02194 6.35233 3.34905 2.13986 1.114 3.84274 3.01773 5.16395 5.04 0.96205 1.809 1.3319 3.85413 1.17141 5.90304-0.18168 3.16454-2.07491 5.92589-4.03334 8.29664-1.75848 1.88276-3.64563 3.65749-5.73632 5.15181-1.27899 0.86926-2.47875 1.88891-3.86716 2.49824-1.56689 1.21652-3.47174 1.82726-5.20587 2.77003-1.89989 0.8468-3.87094 1.49125-5.95392 1.93743-2.24173 0.77857-4.50346 1.58146-6.84948 1.99537-1.90376 0.42256-3.77019 0.53202-5.6175 0.63465-2.0938 0.30892-4.22324 0.41981-6.34169 0.36882zm64.145-6.68992c-2.68708 0.31178-2.4462-2.37547-1.69181-4.08057 0.33347-3.74338 0.53231-7.50394 0.83898-11.2491 0.21458-2.03337 0.36173-3.95904 0.506-6.01443 0.29545-1.77799 0.18445-3.59831 0.30788-5.44193-0.0159-3.3523 0.28182-6.71333 0.4025-10.0839 0.14055-2.07108-0.0756-4.15884 0.10979-6.23612 0.13095-1.98374 0.0205-4.0192-0.0717-5.82807 0.19752-1.90234 0.22902-2.38476 0.10539-4.04923 0.0534-2.6389-0.20719-5.27207-0.20674-7.90267 0.0716-2.47448-0.15268-4.95844-0.11775-7.42364 0.0631-1.00171-0.18714-3.26926-0.19935-4.74217-1.105-0.690852-3.2958 0.841962-4.79107 1.18623-1.59503 0.639198-3.37754 1.19695-4.81944 1.67751-2.09567 0.767188-4.22304 1.50113-6.33687 2.25167-1.91684 0.693148-3.88184 1.68355-5.91276 1.7529-1.14509-0.729124-3.54804-1.25671-2.96325-3.20029 0.8115-2.15884 3.47072-1.37686 5.19232-2.04299 2.00362-0.613158 3.9989-1.27304 6.01333-1.89926 2.02444-0.811382 4.10666-1.47603 6.1725-2.1852 2.3053-0.987018 4.74434-1.61661 7.03485-2.61809 0.32094-2.26524-0.15777-4.63147-0.0789-6.93672-0.0249-3.12348-0.12784-6.22216 0.11126-9.31454 0.20092-1.72907-0.76343-3.7857 0.3772-5.28546 1.41617-0.840146 3.72346-0.746585 4.27477 0.889497 0.20311 3.19548-0.38338 6.36485-0.23851 9.56486 0.0487 3.13336-0.10874 6.31052 0.2268 9.41752 1.89027-0.361359 3.88729-0.935277 5.78521-1.46467 2.97657-0.762751 5.91848-1.59085 8.87781-2.42483 2.06099-0.544764 4.11874-1.01555 6.14231-1.66256 2.51632-0.664118 5.02476-1.37206 7.52682-2.00862 1.65635-0.684694 3.69982 0.982495 3.02091 2.73718-0.15153 2.47191-2.77376 1.92351-4.48517 2.39878-2.22477 0.502016-4.48266 0.865859-6.64662 1.55499-2.05044 0.429474-4.10164 1.13666-6.15338 1.7262-2.0897 0.644078-4.23472 1.00578-6.32657 1.64615-2.04276 0.61036-4.17761 1.0262-6.21061 1.70806-2.4718 0.240884-0.96255 3.1885-1.31748 4.79096 0.0833 2.96046 0.23761 5.92632 0.26257 8.88649-0.24075 3.13184 0.18166 6.27934-8e-3 9.42 0.19003 1.99731 0.0248 4.00963-1e-3 6.04098 0.10378 1.93662 0.0164 3.85639-0.0555 5.81462-0.15317 1.54546 0.13506 3.10174-0.11788 4.6044-0.1285 3.15363-0.26712 6.29517-0.31635 9.45053-0.22524 3.97361-0.37609 7.95303-0.78915 11.9069-0.21371 2.66928-0.50489 5.37369-0.51088 8.07729-0.22855 1.88551 0.0991 3.97844-0.95944 5.63491-0.39773 0.89495-1.01816 1.13503-1.96305 0.95639zm56.5496-0.95659c-1.98184-0.35394-4.03126-0.40416-5.92173-1.19123-1.78141-0.53986-3.43259-1.46983-4.87838-2.63823-1.68006-1.14328-3.20845-2.72073-4.14048-4.47365-1.33305-1.28547-1.5604-3.32992-2.29599-4.92635-0.31063-1.70378-0.9556-3.20733-1.05512-4.89567-0.15348-1.40999-0.43802-2.79496-0.51335-4.2559-0.30674-1.04264-0.18297-2.56179-0.22814-3.6827-0.29862-1.90677 0.28748-3.98572-0.30526-5.77162-1.33104-0.93808-3.86432-1.7176-2.84568-3.91787 0.804-2.05586 4.49231-0.357637 3.9135-3.21957 0.31139-1.77992 0.43929-3.59108 1.19358-5.25728 0.36146-1.66164 0.40732-3.2988 1.16552-4.95407 0.71447-1.55126 1.21072-3.25232 1.87443-4.83018 0.80027-1.50639 1.5923-2.89443 2.45132-4.3044 0.89098-1.54004 1.81229-2.99925 2.74865-4.50094 1.29297-2.16912 2.743-4.25382 4.54653-6.04194 1.63244-2.03064 3.29528-4.02395 5.22065-5.78997 1.38724-1.71189 3.25727-2.65142 4.59727-4.16144 1.51979-1.38501 3.24186-2.56321 4.83776-3.86525 1.81963-1.5275 4.00742-2.52604 6.15775-3.46743 1.74859-0.911496 3.72738-1.05728 5.65183-0.918067 1.97678 0.221202 3.86395 0.816127 5.34657 2.19546 1.4392 1.53408 3.01421 3.06996 3.6816 5.11883 0.89717 2.50541 1.45466 5.27547 0.99306 7.93318-0.52209 1.44006-0.41606 3.2125-1.43286 4.45911-1.20567 2.90782-3.13299 5.47001-5.04 7.96692-1.30354 1.48009-2.41642 3.16099-3.92003 4.44011-1.22547 1.60455-2.73907 2.96989-4.11902 4.46592-1.2707 1.37511-2.92153 2.32728-4.15354 3.76674-1.48586 1.34923-3.014 2.60536-4.63997 3.74158-2.18204 1.53202-4.44552 2.97349-6.70149 4.43127-1.52523 1.10841-3.18436 1.96855-4.83615 2.87518-1.67361 0.918081-3.37769 1.8417-5.08912 2.73368-2.24715 0.795788-4.52841 1.51742-6.89738 1.86632-0.42465 3.3528-0.0229 6.7519 0.31255 10.0954 0.43503 2.27517 0.67747 4.6103 1.55367 6.77807 0.42226 1.81355 1.28309 3.59686 2.52024 5.0315 1.10725 1.50972 2.76705 2.75791 4.51527 3.47729 1.70661 0.80666 3.6206 1.11702 5.41299 1.50539 3.85421 0.37252 7.7182-0.35478 11.3697-1.57006 2.53479-0.64168 4.8801-1.75202 7.2169-2.92536 3.11318-1.43727 5.73738-3.69809 8.58645-5.56953 2.32473-1.97099 4.62974-3.9638 6.85225-6.06312 1.26534-1.41967 2.78589-2.46981 4.01046-3.91957 1.60327-1.60908 2.93655-3.55812 4.8408-4.81789 0.48513-0.751222 1.66337-1.33124 2.2269-1.65529-0.87466 1.48226-1.44849 2.52917-2.32351 4.00607-0.73653 1.1702-1.80942 2.40181-2.51599 3.27392 0.88596 1.49622-1.92455 2.44292-2.57853 3.69852-1.13646 1.44258-2.52086 2.67225-3.72332 4.02668-0.82172 1.40315-2.415 2.02754-3.36263 3.34241-1.30363 1.49451-3.09271 2.54519-4.72266 3.72495-1.55809 1.02438-3.20358 1.90408-4.80121 2.88067-1.58583 0.67598-2.87933 1.88379-4.64161 2.38819-1.72716 0.96367-3.52191 1.78474-5.47587 2.1702-1.77826 0.89253-3.38989 0.45509-5.19783 0.78083-1.7578 0.41636-2.64844 0.35198-4.56779 0.45789-0.29118-5e-3 -0.58528 1e-3 -0.87354-0.0477zm-13.4088-36.1038c1.9508-0.375471 3.88097-0.948881 5.64534-1.87922 2.49724-1.3051 5.0308-2.59762 7.43717-4.0883 1.47136-1.02995 3.12148-1.79976 4.43413-2.99838 1.73409-1.13359 3.40904-2.36065 4.95787-3.74961 1.83409-1.52533 3.70079-2.97888 5.22177-4.81895 2.07937-1.85316 3.9873-3.90191 5.6637-6.12833 1.08591-0.967374 2.02644-2.45357 3.13154-3.5709 0.94062-1.46925 2.26318-3.05207 2.9119-4.47441 0.81835-1.54768 1.77877-3.20333 1.82994-5.03435 0.35929-1.84745 0.0104-3.4963-0.35216-5.39698-0.53455-2.0629-1.743-4.23842-3.93337-4.86168-2.12569-0.183991-4.38686-0.0087-6.30103 1.00875-1.85652 0.655613-3.43817 1.92943-5.069 3.05122-2.58504 1.74758-5.05594 3.65828-7.2182 5.94671-1.42534 1.1492-2.50827 2.73746-3.86981 3.89027-1.01582 1.40308-2.29392 2.6419-3.40315 4.06088-1.07124 1.64329-2.38039 3.12662-3.4039 4.80302-0.8168 1.56608-1.73702 3.12192-2.62124 4.69543-1.26004 2.47249-2.49517 4.94016-3.33194 7.59012-1.18148 2.97467-1.78877 6.21443-2.35081 9.38183 0.18977 0.829544-1.18793 3.29492 0.62125 2.57288zm72.616 22.5992c-1.73785-0.27101-3.83622-1.44392-3.02688-3.5358 0.0461-3.05921 0.037-6.13081-0.16722-9.18091 0.0716-1.74212-0.14796-3.90761-0.17337-5.80822-0.0742-2.03004-0.23451-4.10789-0.27981-6.17421-0.27194-2.63122-0.55178-5.25601-0.91199-7.87844-0.29021-3.09671-0.56447-6.18679-0.96448-9.26299-0.22539-2.54281-0.61814-5.0657-0.79224-7.62079-0.26159-2.99423-0.51-5.9929-0.86363-8.96742-0.0213-3.15915-1.16419-6.36849-0.26759-9.49292 0.70426-2.21324 3.80617-1.66248 4.49479 0.264186 0.0159 2.13469 0.0501 4.30922 0.0248 6.41259 0.0431 1.94985 0.32583 3.93212 0.55138 5.83081 0.0706 1.94028 0.55219 3.89294 0.60972 5.84919 0.11004 1.98872 0.3959 3.95569 0.62044 5.93066 0.19052 2.85648 0.57357 5.69612 0.87235 8.54228 0.13637 1.9061 0.52317 3.85424 0.60124 5.79526 0.33701 1.05737-0.14654 3.88957 0.82841 3.86709 0.36394-2.04198 1.1993-3.87736 1.31605-5.70702 0.34431-1.26444 0.55771-2.60574 0.98424-3.82188-0.29097-1.25488 0.62526-2.64993 0.74339-3.79998 0.26671-1.35503 0.67559-2.35394 0.95597-3.64337 0.37729-1.2212 0.45005-2.67939 1.03802-3.80349 0.39923-0.804396 0.54293-1.94896 0.71905-2.51953 0.33439-1.2379 0.7487-2.65659 1.25928-3.87431 0.38399-1.8638 1.32469-3.56786 1.97407-5.34694 0.39539-1.25744 1.0438-2.56744 1.5678-3.57875 0.88759-1.427 1.48883-2.94954 2.46711-4.27414 0.96315-1.27342 1.63641-2.28178 2.5279-3.73537 1.43137-1.56894 2.5797-3.45388 4.21806-4.81239 1.25171-1.41702 2.889-2.50685 4.23391-3.78536 1.44949-1.41342 3.21213-2.6341 4.95343-3.74744 1.65084-1.07468 3.40487-1.89496 5.08518-2.90904 1.41417-0.778083 2.8822-1.45498 4.3428-2.17515 2.22444-0.657837 4.24125-1.78236 6.5049-2.34585 2.10231-0.436537 4.15025-1.04142 6.29215-1.2179 2.39434-0.317836 5.06136 0.01211 7.05054 1.44265 1.24905 1.18888 1.44501 2.88031 1.24882 4.41189-0.64837 2.26932-2.87723 0.371951-3.64486-0.93468-1.55015-1.35822-3.94498-0.57103-5.84022-0.485646-2.71411 0.551739-5.36283 1.38245-7.92356 2.40466-1.60558 0.675122-3.2502 1.34193-4.83508 2.10995-1.96408 0.986315-3.99364 1.88275-5.72444 3.23609-2.31597 1.46112-4.56887 3.08121-6.62983 4.90201-1.57555 1.05707-2.74652 2.72386-4.07526 4.17313-1.51297 1.52716-2.68352 3.29876-3.85959 5.08259-1.09238 1.68993-2.08557 3.35407-3.02804 5.1328-0.77742 1.66298-1.43773 3.34723-2.06639 5.0672-0.85839 2.00439-1.46723 4.08291-2.24367 6.11517-0.27757 1.57312-0.647 3.15766-1.1828 4.68869-0.59148 2.05969-0.96754 4.25851-1.65105 6.31812-0.46589 3.32237-1.40125 6.54763-1.90254 9.85952-0.4354 2.13104-1.12721 4.20699-1.28669 6.38754-0.407 2.03706-0.68093 4.08577-1.14197 6.11433-0.18519 1.70666-0.50403 3.50099-0.67623 5.25717-0.0332 1.98383-0.4219 3.90498-0.44933 5.92383 0.15137 1.4034-0.57504 3.99209-2.47917 3.32051z" fill="none"/>
 </g>
</svg>
